# xmcd
#
# Track frame offsets:
#	150
#	12950
#	31952
#	50569
#	69612
#	80844
#	93493
#	110143
#	123494
#	137444
#	159419
#	173766
#	188155
#	206302
#	227336
#
# Disc length: 3241
#
# Revision: 2
# Processed by: cddbd v1.5.2PL0 Copyright (c) Steve Scherf et al.
# Submitted via: kJams Pro (development) 1.0patch49.65
#
DISCID=c40ca70f
DTITLE=Various Artist - SFHH3−3
DYEAR=2007
DGENRE=Karaoke
TTITLE0=Creedence Clearwater Revival - Lookin' Out My Back Door
TTITLE1=Lonestar - Amazed
TTITLE2=Dixie Chicks - I'm Not Ready To Make Nice
TTITLE3=John Denver - Somedays Are Diamonds
TTITLE4=Ned Miller - From A Jack To A King
TTITLE5=Dolly Parton - 9 to 5
TTITLE6=Glen Campbell - Wichita Lineman
TTITLE7=Sammie Smith - Help Me Make It Through The Night
TTITLE8=Charley Pride - Crystal Chandeliers
TTITLE9=Leann Rimes - How Do I Live
TTITLE10=Johnny Cash - Folsom Prison Blues
TTITLE11=Tammy Wynette - D.I.V.O.R.C.E
TTITLE12=Shania Twain - That Don't Impress Me Much
TTITLE13=Eagles - Heartache Tonight
TTITLE14=Kasey Chambers - Not Pretty Enough
EXTD=
EXTT0=
EXTT1=
EXTT2=
EXTT3=
EXTT4=
EXTT5=
EXTT6=
EXTT7=
EXTT8=
EXTT9=
EXTT10=
EXTT11=
EXTT12=
EXTT13=
EXTT14=
PLAYORDER=
